<svg width="158" height="45" viewBox="0 0 158 45" fill="none" xmlns="http://www.w3.org/2000/svg">
<g clip-path="url(#clip0_505_1134)">
<path fill-rule="evenodd" clip-rule="evenodd" d="M1.9941 8.65234C1.37604 8.65234 0.875 9.15339 0.875 9.77145V34.5175C0.875 35.1356 1.37604 35.6366 1.99411 35.6366H15.9465C16.5645 35.6366 17.0656 35.1356 17.0656 34.5175V30.2394H25.663C26.2811 30.2394 26.7821 29.7383 26.7821 29.1203V15.1679C26.7821 14.5499 26.2811 14.0488 25.663 14.0488H17.0656V9.77145C17.0656 9.15338 16.5645 8.65234 15.9465 8.65234H1.9941ZM17.0656 14.0488H8.47254C7.85448 14.0488 7.35344 14.5499 7.35344 15.1679V29.1203C7.35344 29.7383 7.85448 30.2394 8.47254 30.2394H17.0656V14.0488Z" fill="#55FFCC"/>
<path d="M49.4768 35.995C47.2864 35.995 45.3882 35.4985 43.7819 34.5056C42.1757 33.4834 40.9199 32.1108 40.0146 30.3877C39.1384 28.6647 38.7004 26.7664 38.7004 24.6929C38.7004 22.5902 39.1384 20.6919 40.0146 18.9981C40.9199 17.275 42.1757 15.917 43.7819 14.9241C45.3882 13.9019 47.2864 13.3908 49.4768 13.3908C52.0759 13.3908 54.2809 14.0625 56.0915 15.4059C57.9314 16.7493 59.1726 18.487 59.8151 20.6189H56.2668C55.7703 19.3631 54.9672 18.341 53.8574 17.5524C52.7769 16.7639 51.4627 16.3697 49.9148 16.3697C48.3086 16.3697 46.9068 16.7493 45.7094 17.5086C44.512 18.2679 43.5921 19.2755 42.9496 20.5313C42.3071 21.7871 41.9858 23.1743 41.9858 24.6929C41.9858 26.1823 42.3071 27.5695 42.9496 28.8545C43.5921 30.1103 44.512 31.1179 45.7094 31.8772C46.9068 32.6365 48.3086 33.0161 49.9148 33.0161C51.4627 33.0161 52.7769 32.6219 53.8574 31.8334C54.9672 31.0448 55.7703 30.0227 56.2668 28.7669H59.8151C59.1726 30.8988 57.9314 32.6365 56.0915 33.9799C54.2809 35.3233 52.0759 35.995 49.4768 35.995ZM71.6405 35.995C69.4209 35.995 67.4934 35.4985 65.858 34.5056C64.2226 33.4834 62.9668 32.1108 62.0906 30.3877C61.2145 28.6647 60.7764 26.7664 60.7764 24.6929C60.7764 22.5902 61.2145 20.6919 62.0906 18.9981C62.9668 17.275 64.2226 15.917 65.858 14.9241C67.4934 13.9019 69.4209 13.3908 71.6405 13.3908C73.8892 13.3908 75.8167 13.9019 77.4229 14.9241C79.0584 15.917 80.3141 17.275 81.1903 18.9981C82.0664 20.6919 82.5045 22.5902 82.5045 24.6929C82.5045 26.7664 82.0664 28.6647 81.1903 30.3877C80.3141 32.1108 79.0584 33.4834 77.4229 34.5056C75.8167 35.4985 73.8892 35.995 71.6405 35.995ZM71.6405 33.0161C73.2759 33.0161 74.6485 32.6365 75.7583 31.8772C76.8972 31.1179 77.7588 30.1103 78.3429 28.8545C78.9269 27.5695 79.219 26.1823 79.219 24.6929C79.219 23.1743 78.9269 21.7871 78.3429 20.5313C77.7588 19.2755 76.8972 18.2679 75.7583 17.5086C74.6485 16.7493 73.2759 16.3697 71.6405 16.3697C70.0342 16.3697 68.6616 16.7493 67.5226 17.5086C66.3837 18.2679 65.5222 19.2755 64.9381 20.5313C64.354 21.7871 64.0619 23.1743 64.0619 24.6929C64.0619 26.1823 64.354 27.5695 64.9381 28.8545C65.5222 30.1103 66.3837 31.1179 67.5226 31.8772C68.6616 32.6365 70.0342 33.0161 71.6405 33.0161ZM81.4956 35.6445L89.9502 24.3425L82.0212 13.7413H86.2267L91.8777 22.0207L97.4849 13.7413H101.69L93.7614 24.3425L102.26 35.6445H98.0544L91.8777 26.708L85.6572 35.6445H81.4956ZM103.549 44.3182V13.7413H106.834V17.2458C107.652 16.0484 108.703 15.1139 109.988 14.4422C111.302 13.7413 112.865 13.3908 114.676 13.3908C116.807 13.3908 118.662 13.9019 120.239 14.9241C121.845 15.917 123.086 17.275 123.963 18.9981C124.839 20.6919 125.277 22.5902 125.277 24.6929C125.277 26.7664 124.839 28.6647 123.963 30.3877C123.086 32.1108 121.845 33.4834 120.239 34.5056C118.662 35.4985 116.807 35.995 114.676 35.995C112.865 35.995 111.302 35.6445 109.988 34.9436C108.703 34.2135 107.652 33.2644 106.834 32.0962V44.3182H103.549ZM114.237 33.0161C115.873 33.0161 117.26 32.6365 118.399 31.8772C119.567 31.1179 120.458 30.1103 121.071 28.8545C121.685 27.5695 121.991 26.1823 121.991 24.6929C121.991 23.1743 121.685 21.7871 121.071 20.5313C120.458 19.2755 119.567 18.2679 118.399 17.5086C117.26 16.7493 115.873 16.3697 114.237 16.3697C112.631 16.3697 111.259 16.7493 110.12 17.5086C108.981 18.2679 108.119 19.2755 107.535 20.5313C106.951 21.7871 106.659 23.1743 106.659 24.6929C106.659 26.1823 106.951 27.5695 107.535 28.8545C108.119 30.1103 108.981 31.1179 110.12 31.8772C111.259 32.6365 112.631 33.0161 114.237 33.0161ZM127.849 35.6445V4.97997H131.135V35.6445H127.849ZM144.587 35.995C142.367 35.995 140.44 35.4985 138.804 34.5056C137.169 33.4834 135.913 32.1108 135.037 30.3877C134.161 28.6647 133.723 26.7664 133.723 24.6929C133.723 22.5902 134.161 20.6919 135.037 18.9981C135.913 17.275 137.169 15.917 138.804 14.9241C140.44 13.9019 142.367 13.3908 144.587 13.3908C146.836 13.3908 148.763 13.9019 150.369 14.9241C152.005 15.917 153.261 17.275 154.137 18.9981C155.013 20.6919 155.451 22.5902 155.451 24.6929C155.451 26.7664 155.013 28.6647 154.137 30.3877C153.261 32.1108 152.005 33.4834 150.369 34.5056C148.763 35.4985 146.836 35.995 144.587 35.995ZM144.587 33.0161C146.222 33.0161 147.595 32.6365 148.705 31.8772C149.844 31.1179 150.705 30.1103 151.289 28.8545C151.873 27.5695 152.165 26.1823 152.165 24.6929C152.165 23.1743 151.873 21.7871 151.289 20.5313C150.705 19.2755 149.844 18.2679 148.705 17.5086C147.595 16.7493 146.222 16.3697 144.587 16.3697C142.981 16.3697 141.608 16.7493 140.469 17.5086C139.33 18.2679 138.469 19.2755 137.884 20.5313C137.3 21.7871 137.008 23.1743 137.008 24.6929C137.008 26.1823 137.3 27.5695 137.884 28.8545C138.469 30.1103 139.33 31.1179 140.469 31.8772C141.608 32.6365 142.981 33.0161 144.587 33.0161Z" fill="white"/>
</g>
<defs>
<clipPath id="clip0_505_1134">
<rect width="156.606" height="44.5" fill="white" transform="translate(0.875 0.5)"/>
</clipPath>
</defs>
</svg>
